<svg xmlns="http://www.w3.org/2000/svg" width="760" height="240" viewBox="0 0 760 240">
  <defs>
    <linearGradient id="bg" x1="0" x2="1" y1="0" y2="1">
      <stop offset="0%" stop-color="#f7fbf9"/>
      <stop offset="100%" stop-color="#e8f5ef"/>
    </linearGradient>
    <linearGradient id="mint" x1="0" x2="1">
      <stop offset="0%" stop-color="#8adbc8"/>
      <stop offset="100%" stop-color="#6ec6b4"/>
    </linearGradient>
    <filter id="shadow" x="-20%" y="-20%" width="140%" height="140%">
      <feDropShadow dx="0" dy="6" stdDeviation="10" flood-color="#1f5a4e" flood-opacity="0.12"/>
    </filter>
  </defs>

  <rect x="10" y="10" rx="24" ry="24" width="740" height="220" fill="url(#bg)" stroke="#ffffff" filter="url(#shadow)"/>
  <rect x="28" y="28" rx="10" ry="10" width="10" height="28" fill="url(#mint)"/>
  <text x="48" y="49" font-size="24" font-family="Segoe UI, Arial, sans-serif" fill="#2f3b3a" font-weight="700">🍡 Weather Ring</text>
  
  
  <g>
    <rect x="300" y="66" rx="14" ry="14" width="132" height="40" fill="#ffffff" stroke="#e2efe9" stroke-width="1"/>
    <text x="310" y="91" font-size="12.8" font-family="Segoe UI, Arial" fill="#334240">🌤️ Shanghai 7.5°C</text>
  </g>
  <g>
    <rect x="110" y="100" rx="14" ry="14" width="132" height="40" fill="#ffffff" stroke="#e2efe9" stroke-width="1"/>
    <text x="120" y="125" font-size="12.8" font-family="Segoe UI, Arial" fill="#334240">☀️ Paris 6.6°C</text>
  </g>
  <g>
    <rect x="500" y="100" rx="14" ry="14" width="132" height="40" fill="#ffffff" stroke="#78cab8" stroke-width="2"/>
    <text x="510" y="125" font-size="12.8" font-family="Segoe UI, Arial" fill="#334240">☀️ London 8.6°C</text>
  </g>
  <g>
    <rect x="95" y="168" rx="14" ry="14" width="132" height="40" fill="#ffffff" stroke="#e2efe9" stroke-width="1"/>
    <text x="105" y="193" font-size="12.8" font-family="Segoe UI, Arial" fill="#334240">☀️ New York 10.2°C</text>
  </g>
  <g>
    <rect x="515" y="168" rx="14" ry="14" width="132" height="40" fill="#ffffff" stroke="#e2efe9" stroke-width="1"/>
    <text x="525" y="193" font-size="12.8" font-family="Segoe UI, Arial" fill="#334240">☀️ Warsaw 9.3°C</text>
  </g>

  <rect x="232" y="126" rx="16" ry="16" width="296" height="74" fill="#ffffff" stroke="#dfeee8"/>
  <text x="248" y="148" font-size="13" font-family="Segoe UI, Arial" fill="#2f3b3a" font-weight="700">Focus: London, United Kingdom</text>
  <text x="248" y="173" font-size="20" font-family="Segoe UI, Arial" fill="#2f3b3a" font-weight="800">☀️ 8.6°C · Clear</text>

  <text x="232" y="214" font-size="12.8" font-family="Segoe UI, Arial" fill="#5d7470">Trip Tip: Great weather for walking and city photos.</text>
  <text x="232" y="228" font-size="12" font-family="Segoe UI, Arial" fill="#8a9b98">Updated: 2026-03-14 20:56 UTC · Focus rotates each run</text>

</svg>